{
  "accessors": [
    {
      "bufferView": 2,
      "componentType": 5126,
      "count": 606,
      "max": [
        36.0,
        11.9288911819458,
        22.0
      ],
      "min": [
        -12.0,
        2.4232757091522217,
        -22.0
      ],
      "type": "VEC3"
    },
    {
      "bufferView": 2,
      "byteOffset": 7272,
      "componentType": 5126,
      "count": 606,
      "max": [
        1.0,
        0.9999794363975525,
        1.0
      ],
      "min": [
        -1.0,
        -3.6916836165801215e-07,
        -1.0
      ],
      "type": "VEC3"
    },
    {
      "bufferView": 3,
      "componentType": 5126,
      "count": 606,
      "max": [
        1.0,
        0.19455604255199432,
        1.0,
        1.0
      ],
      "min": [
        -1.0,
        -0.1945749819278717,
        -1.0,
        1.0
      ],
      "type": "VEC4"
    },
    {
      "bufferView": 1,
      "componentType": 5126,
      "count": 606,
      "max": [
        0.9440512657165527,
        1.0004584789276123
      ],
      "min": [
        0.05587884783744812,
        0.003554749069735408
      ],
      "type": "VEC2"
    },
    {
      "bufferView": 0,
      "componentType": 5125,
      "count": 2352,
      "type": "SCALAR"
    },
    {
      "bufferView": 2,
      "byteOffset": 14544,
      "componentType": 5126,
      "count": 530,
      "max": [
        36.0,
        5.141634941101074,
        22.0
      ],
      "min": [
        -12.0,
        -9.5367431640625e-07,
        -22.0
      ],
      "type": "VEC3"
    },
    {
      "bufferView": 2,
      "byteOffset": 20904,
      "componentType": 5126,
      "count": 530,
      "max": [
        1.0,
        0.9999862909317017,
        1.0
      ],
      "min": [
        -1.0,
        -1.0057411827801843e-06,
        -1.0
      ],
      "type": "VEC3"
    },
    {
      "bufferView": 3,
      "byteOffset": 9696,
      "componentType": 5126,
      "count": 530,
      "max": [
        1.0,
        0.3713706135749817,
        1.0,
        1.0
      ],
      "min": [
        -1.0,
        -0.3713836669921875,
        -1.0,
        1.0
      ],
      "type": "VEC4"
    },
    {
      "bufferView": 1,
      "byteOffset": 4848,
      "componentType": 5126,
      "count": 530,
      "max": [
        1.0,
        0.989039421081543
      ],
      "min": [
        0.0,
        0.0
      ],
      "type": "VEC2"
    },
    {
      "bufferView": 0,
      "byteOffset": 9408,
      "componentType": 5125,
      "count": 2352,
      "type": "SCALAR"
    }
  ],
  "asset": {
    "extras": {
      "author": "Tomas Rubianes (https://sketchfab.com/rasamot)",
      "license": "CC-BY-4.0 (http://creativecommons.org/licenses/by/4.0/)",
      "source": "https://sketchfab.com/3d-models/ocean-300a00b005674720b562a43e342a3ad0",
      "title": "Ocean"
    },
    "generator": "Sketchfab-13.45.0",
    "version": "2.0"
  },
  "bufferViews": [
    {
      "buffer": 0,
      "byteLength": 18816,
      "name": "floatBufferViews",
      "target": 34963
    },
    {
      "buffer": 0,
      "byteLength": 9088,
      "byteOffset": 18816,
      "byteStride": 8,
      "name": "floatBufferViews",
      "target": 34962
    },
    {
      "buffer": 0,
      "byteLength": 27264,
      "byteOffset": 27904,
      "byteStride": 12,
      "name": "floatBufferViews",
      "target": 34962
    },
    {
      "buffer": 0,
      "byteLength": 18176,
      "byteOffset": 55168,
      "byteStride": 16,
      "name": "floatBufferViews",
      "target": 34962
    }
  ],
  "buffers": [
    {
      "byteLength": 73344,
      "uri": "scene.bin"
    }
  ],
  "images": [
    {
      "uri": "textures/m_ocean_baseColor.png"
    },
    {
      "uri": "textures/m_ocean_metallicRoughness.png"
    },
    {
      "uri": "textures/m_ocean_normal.png"
    },
    {
      "uri": "textures/m_sand_baseColor.png"
    },
    {
      "uri": "textures/m_sand_metallicRoughness.png"
    },
    {
      "uri": "textures/m_sand_normal.png"
    }
  ],
  "materials": [
    {
      "alphaMode": "BLEND",
      "doubleSided": true,
      "name": "m_ocean",
      "normalTexture": {
        "index": 2
      },
      "occlusionTexture": {
        "index": 1
      },
      "pbrMetallicRoughness": {
        "baseColorTexture": {
          "index": 0
        },
        "metallicRoughnessTexture": {
          "index": 1
        }
      }
    },
    {
      "doubleSided": true,
      "name": "m_sand",
      "normalTexture": {
        "index": 5
      },
      "occlusionTexture": {
        "index": 4
      },
      "pbrMetallicRoughness": {
        "baseColorTexture": {
          "index": 3
        },
        "metallicRoughnessTexture": {
          "index": 4
        }
      }
    }
  ],
  "meshes": [
    {
      "name": "ocean3_m_ocean_0",
      "primitives": [
        {
          "attributes": {
            "NORMAL": 1,
            "POSITION": 0,
            "TANGENT": 2,
            "TEXCOORD_0": 3
          },
          "indices": 4,
          "material": 0,
          "mode": 4
        }
      ]
    },
    {
      "name": "sand3_m_sand_0",
      "primitives": [
        {
          "attributes": {
            "NORMAL": 6,
            "POSITION": 5,
            "TANGENT": 7,
            "TEXCOORD_0": 8
          },
          "indices": 9,
          "material": 1,
          "mode": 4
        }
      ]
    }
  ],
  "nodes": [
    {
      "children": [
        1
      ],
      "matrix": [
        1.0,
        0.0,
        0.0,
        0.0,
        0.0,
        2.220446049250313e-16,
        -1.0,
        0.0,
        0.0,
        1.0,
        2.220446049250313e-16,
        0.0,
        0.0,
        0.0,
        0.0,
        1.0
      ],
      "name": "Sketchfab_model"
    },
    {
      "children": [
        2
      ],
      "matrix": [
        0.009999999776482582,
        0.0,
        0.0,
        0.0,
        0.0,
        0.0,
        0.009999999776482582,
        0.0,
        0.0,
        -0.009999999776482582,
        0.0,
        0.0,
        0.0,
        0.0,
        0.0,
        1.0
      ],
      "name": "ocean.fbx"
    },
    {
      "children": [
        3,
        5
      ],
      "name": "RootNode"
    },
    {
      "children": [
        4
      ],
      "name": "ocean3"
    },
    {
      "mesh": 0,
      "name": "ocean3_m_ocean_0"
    },
    {
      "children": [
        6
      ],
      "name": "sand3"
    },
    {
      "mesh": 1,
      "name": "sand3_m_sand_0"
    }
  ],
  "samplers": [
    {
      "magFilter": 9729,
      "minFilter": 9987,
      "wrapS": 10497,
      "wrapT": 10497
    }
  ],
  "scene": 0,
  "scenes": [
    {
      "name": "Sketchfab_Scene",
      "nodes": [
        0
      ]
    }
  ],
  "textures": [
    {
      "sampler": 0,
      "source": 0
    },
    {
      "sampler": 0,
      "source": 1
    },
    {
      "sampler": 0,
      "source": 2
    },
    {
      "sampler": 0,
      "source": 3
    },
    {
      "sampler": 0,
      "source": 4
    },
    {
      "sampler": 0,
      "source": 5
    }
  ]
}
