{
  "accessors": [
    {
      "bufferView": 2,
      "componentType": 5126,
      "count": 24,
      "max": [
        1.0,
        1.0,
        1.0
      ],
      "min": [
        -1.0,
        -1.0,
        -1.0
      ],
      "type": "VEC3"
    },
    {
      "bufferView": 2,
      "byteOffset": 288,
      "componentType": 5126,
      "count": 24,
      "max": [
        1.0,
        1.0,
        1.0
      ],
      "min": [
        -1.0,
        -1.0,
        -1.0
      ],
      "type": "VEC3"
    },
    {
      "bufferView": 1,
      "componentType": 5126,
      "count": 24,
      "max": [
        0.7499567270278931,
        0.9999134540557861
      ],
      "min": [
        8.659055310999975e-05,
        8.659055310999975e-05
      ],
      "type": "VEC2"
    },
    {
      "bufferView": 0,
      "componentType": 5125,
      "count": 36,
      "type": "SCALAR"
    },
    {
      "bufferView": 2,
      "byteOffset": 576,
      "componentType": 5126,
      "count": 1272,
      "max": [
        12.634820938110352,
        12.835437774658203,
        1.6061595678329468
      ],
      "min": [
        -12.949789047241211,
        -12.674633026123047,
        -4.879787921905518
      ],
      "type": "VEC3"
    },
    {
      "bufferView": 2,
      "byteOffset": 15840,
      "componentType": 5126,
      "count": 1272,
      "max": [
        0.9999926686286926,
        0.9999873042106628,
        0.9999308586120605
      ],
      "min": [
        -0.9999980926513672,
        -0.9999974966049194,
        -0.9999954104423523
      ],
      "type": "VEC3"
    },
    {
      "bufferView": 1,
      "byteOffset": 192,
      "componentType": 5126,
      "count": 1272,
      "max": [
        1.0000001192092896,
        0.8991097807884216
      ],
      "min": [
        -9.153533042649542e-09,
        -1.6336562325136583e-08
      ],
      "type": "VEC2"
    },
    {
      "bufferView": 1,
      "byteOffset": 10368,
      "componentType": 5126,
      "count": 1272,
      "max": [
        1.0000001192092896,
        0.8991097807884216
      ],
      "min": [
        -9.153533042649542e-09,
        -1.6336562325136583e-08
      ],
      "type": "VEC2"
    },
    {
      "bufferView": 0,
      "byteOffset": 144,
      "componentType": 5125,
      "count": 6300,
      "type": "SCALAR"
    },
    {
      "bufferView": 2,
      "byteOffset": 31104,
      "componentType": 5126,
      "count": 4385,
      "max": [
        19.935062408447266,
        19.92774772644043,
        0.38892287015914917
      ],
      "min": [
        -19.934364318847656,
        -19.93776512145996,
        -7.974768161773682
      ],
      "type": "VEC3"
    },
    {
      "bufferView": 2,
      "byteOffset": 83724,
      "componentType": 5126,
      "count": 4385,
      "max": [
        1.0,
        0.9999998807907104,
        0.9999977350234985
      ],
      "min": [
        -0.9999998807907104,
        -1.0,
        -0.9999977350234985
      ],
      "type": "VEC3"
    },
    {
      "bufferView": 1,
      "byteOffset": 20544,
      "componentType": 5126,
      "count": 4385,
      "max": [
        0.3229025900363922,
        1.0000001192092896
      ],
      "min": [
        -1.6302758254482796e-08,
        -4.192249658530045e-09
      ],
      "type": "VEC2"
    },
    {
      "bufferView": 0,
      "byteOffset": 25344,
      "componentType": 5125,
      "count": 23184,
      "type": "SCALAR"
    },
    {
      "bufferView": 2,
      "byteOffset": 136344,
      "componentType": 5126,
      "count": 468,
      "max": [
        0.4696967303752899,
        0.4692075848579407,
        6.442168712615967
      ],
      "min": [
        -1.0912144184112549,
        -1.1887092590332031,
        0.14971597492694855
      ],
      "type": "VEC3"
    },
    {
      "bufferView": 2,
      "byteOffset": 141960,
      "componentType": 5126,
      "count": 468,
      "max": [
        0.9998564720153809,
        0.9982775449752808,
        0.999858558177948
      ],
      "min": [
        -0.9992667436599731,
        -0.9884272813796997,
        -0.9999996423721313
      ],
      "type": "VEC3"
    },
    {
      "bufferView": 1,
      "byteOffset": 55624,
      "componentType": 5126,
      "count": 468,
      "max": [
        0.36082327365875244,
        0.41854429244995117
      ],
      "min": [
        0.03869624435901642,
        0.034963250160217285
      ],
      "type": "VEC2"
    },
    {
      "bufferView": 0,
      "byteOffset": 118080,
      "componentType": 5125,
      "count": 1248,
      "type": "SCALAR"
    },
    {
      "bufferView": 2,
      "byteOffset": 147576,
      "componentType": 5126,
      "count": 42,
      "max": [
        0.43812286853790283,
        0.9579064846038818,
        0.09535235166549683
      ],
      "min": [
        -0.4361284673213959,
        -0.0549141988158226,
        -0.502679705619812
      ],
      "type": "VEC3"
    },
    {
      "bufferView": 2,
      "byteOffset": 148080,
      "componentType": 5126,
      "count": 42,
      "max": [
        0.5759506225585938,
        0.7779794931411743,
        0.9995440244674683
      ],
      "min": [
        -0.5840768814086914,
        -0.03177293762564659,
        0.6082578897476196
      ],
      "type": "VEC3"
    },
    {
      "bufferView": 1,
      "byteOffset": 59368,
      "componentType": 5126,
      "count": 42,
      "max": [
        0.9218968152999878,
        0.5743045806884766
      ],
      "min": [
        0.555202305316925,
        0.032158710062503815
      ],
      "type": "VEC2"
    },
    {
      "bufferView": 0,
      "byteOffset": 123072,
      "componentType": 5125,
      "count": 168,
      "type": "SCALAR"
    },
    {
      "bufferView": 2,
      "byteOffset": 148584,
      "componentType": 5126,
      "count": 42,
      "max": [
        0.43812286853790283,
        0.9579064846038818,
        0.09535235166549683
      ],
      "min": [
        -0.4361284673213959,
        -0.0549141988158226,
        -0.502679705619812
      ],
      "type": "VEC3"
    },
    {
      "bufferView": 2,
      "byteOffset": 149088,
      "componentType": 5126,
      "count": 42,
      "max": [
        0.5759506225585938,
        0.7779794931411743,
        0.9995440244674683
      ],
      "min": [
        -0.5840768814086914,
        -0.03177293762564659,
        0.6082578897476196
      ],
      "type": "VEC3"
    },
    {
      "bufferView": 1,
      "byteOffset": 59704,
      "componentType": 5126,
      "count": 42,
      "max": [
        0.9218968152999878,
        0.5743045806884766
      ],
      "min": [
        0.555202305316925,
        0.032158710062503815
      ],
      "type": "VEC2"
    },
    {
      "bufferView": 0,
      "byteOffset": 123744,
      "componentType": 5125,
      "count": 168,
      "type": "SCALAR"
    },
    {
      "bufferView": 2,
      "byteOffset": 149592,
      "componentType": 5126,
      "count": 42,
      "max": [
        0.43812286853790283,
        0.9579064846038818,
        0.09535235166549683
      ],
      "min": [
        -0.4361284673213959,
        -0.0549141988158226,
        -0.502679705619812
      ],
      "type": "VEC3"
    },
    {
      "bufferView": 2,
      "byteOffset": 150096,
      "componentType": 5126,
      "count": 42,
      "max": [
        0.5759506225585938,
        0.7779794931411743,
        0.9995440244674683
      ],
      "min": [
        -0.5840768814086914,
        -0.03177293762564659,
        0.6082578897476196
      ],
      "type": "VEC3"
    },
    {
      "bufferView": 1,
      "byteOffset": 60040,
      "componentType": 5126,
      "count": 42,
      "max": [
        0.9218968152999878,
        0.5743045806884766
      ],
      "min": [
        0.555202305316925,
        0.032158710062503815
      ],
      "type": "VEC2"
    },
    {
      "bufferView": 0,
      "byteOffset": 124416,
      "componentType": 5125,
      "count": 168,
      "type": "SCALAR"
    },
    {
      "bufferView": 2,
      "byteOffset": 150600,
      "componentType": 5126,
      "count": 42,
      "max": [
        0.43812286853790283,
        0.9579064846038818,
        0.09535235166549683
      ],
      "min": [
        -0.4361284673213959,
        -0.0549141988158226,
        -0.502679705619812
      ],
      "type": "VEC3"
    },
    {
      "bufferView": 2,
      "byteOffset": 151104,
      "componentType": 5126,
      "count": 42,
      "max": [
        0.5759506225585938,
        0.7779794931411743,
        0.9995440244674683
      ],
      "min": [
        -0.5840768814086914,
        -0.03177293762564659,
        0.6082578897476196
      ],
      "type": "VEC3"
    },
    {
      "bufferView": 1,
      "byteOffset": 60376,
      "componentType": 5126,
      "count": 42,
      "max": [
        0.9218968152999878,
        0.5743045806884766
      ],
      "min": [
        0.555202305316925,
        0.032158710062503815
      ],
      "type": "VEC2"
    },
    {
      "bufferView": 0,
      "byteOffset": 125088,
      "componentType": 5125,
      "count": 168,
      "type": "SCALAR"
    },
    {
      "bufferView": 2,
      "byteOffset": 151608,
      "componentType": 5126,
      "count": 42,
      "max": [
        0.43812286853790283,
        0.9579064846038818,
        0.09535235166549683
      ],
      "min": [
        -0.4361284673213959,
        -0.0549141988158226,
        -0.502679705619812
      ],
      "type": "VEC3"
    },
    {
      "bufferView": 2,
      "byteOffset": 152112,
      "componentType": 5126,
      "count": 42,
      "max": [
        0.5759506225585938,
        0.7779794931411743,
        0.9995440244674683
      ],
      "min": [
        -0.5840768814086914,
        -0.03177293762564659,
        0.6082578897476196
      ],
      "type": "VEC3"
    },
    {
      "bufferView": 1,
      "byteOffset": 60712,
      "componentType": 5126,
      "count": 42,
      "max": [
        0.9218968152999878,
        0.5743045806884766
      ],
      "min": [
        0.555202305316925,
        0.032158710062503815
      ],
      "type": "VEC2"
    },
    {
      "bufferView": 0,
      "byteOffset": 125760,
      "componentType": 5125,
      "count": 168,
      "type": "SCALAR"
    },
    {
      "bufferView": 2,
      "byteOffset": 152616,
      "componentType": 5126,
      "count": 42,
      "max": [
        0.5704513192176819,
        0.5824678540229797,
        0.30295541882514954
      ],
      "min": [
        -0.5358735918998718,
        -0.5731349587440491,
        -0.1269095540046692
      ],
      "type": "VEC3"
    },
    {
      "bufferView": 2,
      "byteOffset": 153120,
      "componentType": 5126,
      "count": 42,
      "max": [
        0.6369360685348511,
        0.7989693284034729,
        0.9995745420455933
      ],
      "min": [
        -0.7137515544891357,
        -0.6807547807693481,
        0.5701513290405273
      ],
      "type": "VEC3"
    },
    {
      "bufferView": 1,
      "byteOffset": 61048,
      "componentType": 5126,
      "count": 42,
      "max": [
        0.9218968152999878,
        0.5743045806884766
      ],
      "min": [
        0.555202305316925,
        0.032158710062503815
      ],
      "type": "VEC2"
    },
    {
      "bufferView": 0,
      "byteOffset": 126432,
      "componentType": 5125,
      "count": 168,
      "type": "SCALAR"
    },
    {
      "bufferView": 2,
      "byteOffset": 153624,
      "componentType": 5126,
      "count": 385,
      "max": [
        1.6664104461669922,
        0.4969353973865509,
        5.033045768737793
      ],
      "min": [
        -0.5985572338104248,
        -0.841015100479126,
        0.1497109979391098
      ],
      "type": "VEC3"
    },
    {
      "bufferView": 2,
      "byteOffset": 158244,
      "componentType": 5126,
      "count": 385,
      "max": [
        0.9706004858016968,
        0.9941186904907227,
        0.9998772740364075
      ],
      "min": [
        -0.9999807476997375,
        -0.9985096454620361,
        -0.9999996423721313
      ],
      "type": "VEC3"
    },
    {
      "bufferView": 1,
      "byteOffset": 61384,
      "componentType": 5126,
      "count": 385,
      "max": [
        0.43275099992752075,
        0.44417083263397217
      ],
      "min": [
        0.038696274161338806,
        0.034963250160217285
      ],
      "type": "VEC2"
    },
    {
      "bufferView": 0,
      "byteOffset": 127104,
      "componentType": 5125,
      "count": 1056,
      "type": "SCALAR"
    },
    {
      "bufferView": 2,
      "byteOffset": 162864,
      "componentType": 5126,
      "count": 42,
      "max": [
        0.43812286853790283,
        0.9579064846038818,
        0.09535235166549683
      ],
      "min": [
        -0.4361284673213959,
        -0.0549141988158226,
        -0.502679705619812
      ],
      "type": "VEC3"
    },
    {
      "bufferView": 2,
      "byteOffset": 163368,
      "componentType": 5126,
      "count": 42,
      "max": [
        0.5759506225585938,
        0.7779794931411743,
        0.9995440244674683
      ],
      "min": [
        -0.5840768814086914,
        -0.03177293762564659,
        0.6082578897476196
      ],
      "type": "VEC3"
    },
    {
      "bufferView": 1,
      "byteOffset": 64464,
      "componentType": 5126,
      "count": 42,
      "max": [
        0.9218968152999878,
        0.5743045806884766
      ],
      "min": [
        0.555202305316925,
        0.032158710062503815
      ],
      "type": "VEC2"
    },
    {
      "bufferView": 0,
      "byteOffset": 131328,
      "componentType": 5125,
      "count": 168,
      "type": "SCALAR"
    },
    {
      "bufferView": 2,
      "byteOffset": 163872,
      "componentType": 5126,
      "count": 42,
      "max": [
        0.43812286853790283,
        0.9579064846038818,
        0.09535235166549683
      ],
      "min": [
        -0.4361284673213959,
        -0.0549141988158226,
        -0.502679705619812
      ],
      "type": "VEC3"
    },
    {
      "bufferView": 2,
      "byteOffset": 164376,
      "componentType": 5126,
      "count": 42,
      "max": [
        0.5759506225585938,
        0.7779794931411743,
        0.9995440244674683
      ],
      "min": [
        -0.5840768814086914,
        -0.03177293762564659,
        0.6082578897476196
      ],
      "type": "VEC3"
    },
    {
      "bufferView": 1,
      "byteOffset": 64800,
      "componentType": 5126,
      "count": 42,
      "max": [
        0.9218968152999878,
        0.5743045806884766
      ],
      "min": [
        0.555202305316925,
        0.032158710062503815
      ],
      "type": "VEC2"
    },
    {
      "bufferView": 0,
      "byteOffset": 132000,
      "componentType": 5125,
      "count": 168,
      "type": "SCALAR"
    },
    {
      "bufferView": 2,
      "byteOffset": 164880,
      "componentType": 5126,
      "count": 42,
      "max": [
        0.43812286853790283,
        0.9579064846038818,
        0.09535235166549683
      ],
      "min": [
        -0.4361284673213959,
        -0.0549141988158226,
        -0.502679705619812
      ],
      "type": "VEC3"
    },
    {
      "bufferView": 2,
      "byteOffset": 165384,
      "componentType": 5126,
      "count": 42,
      "max": [
        0.5759506225585938,
        0.7779794931411743,
        0.9995440244674683
      ],
      "min": [
        -0.5840768814086914,
        -0.03177293762564659,
        0.6082578897476196
      ],
      "type": "VEC3"
    },
    {
      "bufferView": 1,
      "byteOffset": 65136,
      "componentType": 5126,
      "count": 42,
      "max": [
        0.9218968152999878,
        0.5743045806884766
      ],
      "min": [
        0.555202305316925,
        0.032158710062503815
      ],
      "type": "VEC2"
    },
    {
      "bufferView": 0,
      "byteOffset": 132672,
      "componentType": 5125,
      "count": 168,
      "type": "SCALAR"
    },
    {
      "bufferView": 2,
      "byteOffset": 165888,
      "componentType": 5126,
      "count": 42,
      "max": [
        0.43812286853790283,
        0.9579064846038818,
        0.09535235166549683
      ],
      "min": [
        -0.4361284673213959,
        -0.0549141988158226,
        -0.502679705619812
      ],
      "type": "VEC3"
    },
    {
      "bufferView": 2,
      "byteOffset": 166392,
      "componentType": 5126,
      "count": 42,
      "max": [
        0.5759506225585938,
        0.7779794931411743,
        0.9995440244674683
      ],
      "min": [
        -0.5840768814086914,
        -0.03177293762564659,
        0.6082578897476196
      ],
      "type": "VEC3"
    },
    {
      "bufferView": 1,
      "byteOffset": 65472,
      "componentType": 5126,
      "count": 42,
      "max": [
        0.9218968152999878,
        0.5743045806884766
      ],
      "min": [
        0.555202305316925,
        0.032158710062503815
      ],
      "type": "VEC2"
    },
    {
      "bufferView": 0,
      "byteOffset": 133344,
      "componentType": 5125,
      "count": 168,
      "type": "SCALAR"
    },
    {
      "bufferView": 2,
      "byteOffset": 166896,
      "componentType": 5126,
      "count": 42,
      "max": [
        0.43812286853790283,
        0.9579064846038818,
        0.09535235166549683
      ],
      "min": [
        -0.4361284673213959,
        -0.0549141988158226,
        -0.502679705619812
      ],
      "type": "VEC3"
    },
    {
      "bufferView": 2,
      "byteOffset": 167400,
      "componentType": 5126,
      "count": 42,
      "max": [
        0.5759506225585938,
        0.7779794931411743,
        0.9995440244674683
      ],
      "min": [
        -0.5840768814086914,
        -0.03177293762564659,
        0.6082578897476196
      ],
      "type": "VEC3"
    },
    {
      "bufferView": 1,
      "byteOffset": 65808,
      "componentType": 5126,
      "count": 42,
      "max": [
        0.9218968152999878,
        0.5743045806884766
      ],
      "min": [
        0.555202305316925,
        0.032158710062503815
      ],
      "type": "VEC2"
    },
    {
      "bufferView": 0,
      "byteOffset": 134016,
      "componentType": 5125,
      "count": 168,
      "type": "SCALAR"
    },
    {
      "bufferView": 2,
      "byteOffset": 167904,
      "componentType": 5126,
      "count": 42,
      "max": [
        0.5704513192176819,
        0.5824678540229797,
        0.30295541882514954
      ],
      "min": [
        -0.5358735918998718,
        -0.5731349587440491,
        -0.1269095540046692
      ],
      "type": "VEC3"
    },
    {
      "bufferView": 2,
      "byteOffset": 168408,
      "componentType": 5126,
      "count": 42,
      "max": [
        0.6369360685348511,
        0.7989693284034729,
        0.9995745420455933
      ],
      "min": [
        -0.7137515544891357,
        -0.6807547807693481,
        0.5701513290405273
      ],
      "type": "VEC3"
    },
    {
      "bufferView": 1,
      "byteOffset": 66144,
      "componentType": 5126,
      "count": 42,
      "max": [
        0.9218968152999878,
        0.5743045806884766
      ],
      "min": [
        0.555202305316925,
        0.032158710062503815
      ],
      "type": "VEC2"
    },
    {
      "bufferView": 0,
      "byteOffset": 134688,
      "componentType": 5125,
      "count": 168,
      "type": "SCALAR"
    },
    {
      "bufferView": 2,
      "byteOffset": 168912,
      "componentType": 5126,
      "count": 396,
      "max": [
        1.380831241607666,
        0.6852513551712036,
        4.9384026527404785
      ],
      "min": [
        -0.6018360257148743,
        -0.9516969323158264,
        0.1497529298067093
      ],
      "type": "VEC3"
    },
    {
      "bufferView": 2,
      "byteOffset": 173664,
      "componentType": 5126,
      "count": 396,
      "max": [
        0.9925236105918884,
        0.9987577199935913,
        0.9996192455291748
      ],
      "min": [
        -0.9944002032279968,
        -0.9980655908584595,
        -0.9999996423721313
      ],
      "type": "VEC3"
    },
    {
      "bufferView": 1,
      "byteOffset": 66480,
      "componentType": 5126,
      "count": 396,
      "max": [
        0.4358954429626465,
        0.40313583612442017
      ],
      "min": [
        0.14720924198627472,
        0.034963250160217285
      ],
      "type": "VEC2"
    },
    {
      "bufferView": 0,
      "byteOffset": 135360,
      "componentType": 5125,
      "count": 1056,
      "type": "SCALAR"
    },
    {
      "bufferView": 2,
      "byteOffset": 178416,
      "componentType": 5126,
      "count": 42,
      "max": [
        0.43812286853790283,
        0.9579064846038818,
        0.09535235166549683
      ],
      "min": [
        -0.4361284673213959,
        -0.0549141988158226,
        -0.502679705619812
      ],
      "type": "VEC3"
    },
    {
      "bufferView": 2,
      "byteOffset": 178920,
      "componentType": 5126,
      "count": 42,
      "max": [
        0.5759506225585938,
        0.7779794931411743,
        0.9995440244674683
      ],
      "min": [
        -0.5840768814086914,
        -0.03177293762564659,
        0.6082578897476196
      ],
      "type": "VEC3"
    },
    {
      "bufferView": 1,
      "byteOffset": 69648,
      "componentType": 5126,
      "count": 42,
      "max": [
        0.9218968152999878,
        0.5743045806884766
      ],
      "min": [
        0.555202305316925,
        0.032158710062503815
      ],
      "type": "VEC2"
    },
    {
      "bufferView": 0,
      "byteOffset": 139584,
      "componentType": 5125,
      "count": 168,
      "type": "SCALAR"
    },
    {
      "bufferView": 2,
      "byteOffset": 179424,
      "componentType": 5126,
      "count": 42,
      "max": [
        0.43812286853790283,
        0.9579064846038818,
        0.09535235166549683
      ],
      "min": [
        -0.4361284673213959,
        -0.0549141988158226,
        -0.502679705619812
      ],
      "type": "VEC3"
    },
    {
      "bufferView": 2,
      "byteOffset": 179928,
      "componentType": 5126,
      "count": 42,
      "max": [
        0.5759506225585938,
        0.7779794931411743,
        0.9995440244674683
      ],
      "min": [
        -0.5840768814086914,
        -0.03177293762564659,
        0.6082578897476196
      ],
      "type": "VEC3"
    },
    {
      "bufferView": 1,
      "byteOffset": 69984,
      "componentType": 5126,
      "count": 42,
      "max": [
        0.9218968152999878,
        0.5743045806884766
      ],
      "min": [
        0.555202305316925,
        0.032158710062503815
      ],
      "type": "VEC2"
    },
    {
      "bufferView": 0,
      "byteOffset": 140256,
      "componentType": 5125,
      "count": 168,
      "type": "SCALAR"
    },
    {
      "bufferView": 2,
      "byteOffset": 180432,
      "componentType": 5126,
      "count": 42,
      "max": [
        0.43812286853790283,
        0.9579064846038818,
        0.09535235166549683
      ],
      "min": [
        -0.4361284673213959,
        -0.0549141988158226,
        -0.502679705619812
      ],
      "type": "VEC3"
    },
    {
      "bufferView": 2,
      "byteOffset": 180936,
      "componentType": 5126,
      "count": 42,
      "max": [
        0.5759506225585938,
        0.7779794931411743,
        0.9995440244674683
      ],
      "min": [
        -0.5840768814086914,
        -0.03177293762564659,
        0.6082578897476196
      ],
      "type": "VEC3"
    },
    {
      "bufferView": 1,
      "byteOffset": 70320,
      "componentType": 5126,
      "count": 42,
      "max": [
        0.9218968152999878,
        0.5743045806884766
      ],
      "min": [
        0.555202305316925,
        0.032158710062503815
      ],
      "type": "VEC2"
    },
    {
      "bufferView": 0,
      "byteOffset": 140928,
      "componentType": 5125,
      "count": 168,
      "type": "SCALAR"
    },
    {
      "bufferView": 2,
      "byteOffset": 181440,
      "componentType": 5126,
      "count": 42,
      "max": [
        0.43812286853790283,
        0.9579064846038818,
        0.09535235166549683
      ],
      "min": [
        -0.4361284673213959,
        -0.0549141988158226,
        -0.502679705619812
      ],
      "type": "VEC3"
    },
    {
      "bufferView": 2,
      "byteOffset": 181944,
      "componentType": 5126,
      "count": 42,
      "max": [
        0.5759506225585938,
        0.7779794931411743,
        0.9995440244674683
      ],
      "min": [
        -0.5840768814086914,
        -0.03177293762564659,
        0.6082578897476196
      ],
      "type": "VEC3"
    },
    {
      "bufferView": 1,
      "byteOffset": 70656,
      "componentType": 5126,
      "count": 42,
      "max": [
        0.9218968152999878,
        0.5743045806884766
      ],
      "min": [
        0.555202305316925,
        0.032158710062503815
      ],
      "type": "VEC2"
    },
    {
      "bufferView": 0,
      "byteOffset": 141600,
      "componentType": 5125,
      "count": 168,
      "type": "SCALAR"
    },
    {
      "bufferView": 2,
      "byteOffset": 182448,
      "componentType": 5126,
      "count": 42,
      "max": [
        0.43812286853790283,
        0.9579064846038818,
        0.09535235166549683
      ],
      "min": [
        -0.4361284673213959,
        -0.0549141988158226,
        -0.502679705619812
      ],
      "type": "VEC3"
    },
    {
      "bufferView": 2,
      "byteOffset": 182952,
      "componentType": 5126,
      "count": 42,
      "max": [
        0.5759506225585938,
        0.7779794931411743,
        0.9995440244674683
      ],
      "min": [
        -0.5840768814086914,
        -0.03177293762564659,
        0.6082578897476196
      ],
      "type": "VEC3"
    },
    {
      "bufferView": 1,
      "byteOffset": 70992,
      "componentType": 5126,
      "count": 42,
      "max": [
        0.9218968152999878,
        0.5743045806884766
      ],
      "min": [
        0.555202305316925,
        0.032158710062503815
      ],
      "type": "VEC2"
    },
    {
      "bufferView": 0,
      "byteOffset": 142272,
      "componentType": 5125,
      "count": 168,
      "type": "SCALAR"
    },
    {
      "bufferView": 2,
      "byteOffset": 183456,
      "componentType": 5126,
      "count": 42,
      "max": [
        0.5704513192176819,
        0.5824678540229797,
        0.30295541882514954
      ],
      "min": [
        -0.5358735918998718,
        -0.5731349587440491,
        -0.1269095540046692
      ],
      "type": "VEC3"
    },
    {
      "bufferView": 2,
      "byteOffset": 183960,
      "componentType": 5126,
      "count": 42,
      "max": [
        0.6369360685348511,
        0.7989693284034729,
        0.9995745420455933
      ],
      "min": [
        -0.7137515544891357,
        -0.6807547807693481,
        0.5701513290405273
      ],
      "type": "VEC3"
    },
    {
      "bufferView": 1,
      "byteOffset": 71328,
      "componentType": 5126,
      "count": 42,
      "max": [
        0.9218968152999878,
        0.5743045806884766
      ],
      "min": [
        0.555202305316925,
        0.032158710062503815
      ],
      "type": "VEC2"
    },
    {
      "bufferView": 0,
      "byteOffset": 142944,
      "componentType": 5125,
      "count": 168,
      "type": "SCALAR"
    },
    {
      "bufferView": 2,
      "byteOffset": 184464,
      "componentType": 5126,
      "count": 2352,
      "max": [
        3.7390596866607666,
        0.5361066460609436,
        0.5132120847702026
      ],
      "min": [
        -3.7390596866607666,
        -4.919759750366211,
        -0.5179980993270874
      ],
      "type": "VEC3"
    },
    {
      "bufferView": 2,
      "byteOffset": 212688,
      "componentType": 5126,
      "count": 2352,
      "max": [
        0.9999362826347351,
        0.998790442943573,
        0.9983238577842712
      ],
      "min": [
        -0.9999364018440247,
        -0.9986572265625,
        -0.9983927011489868
      ],
      "type": "VEC3"
    },
    {
      "bufferView": 1,
      "byteOffset": 71664,
      "componentType": 5126,
      "count": 2352,
      "max": [
        0.37772053480148315,
        1.0000001192092896
      ],
      "min": [
        -3.1486173668326956e-09,
        -5.6363422373806316e-08
      ],
      "type": "VEC2"
    },
    {
      "bufferView": 1,
      "byteOffset": 90480,
      "componentType": 5126,
      "count": 2352,
      "max": [
        0.37772053480148315,
        1.0000001192092896
      ],
      "min": [
        -3.1486173668326956e-09,
        -5.6363422373806316e-08
      ],
      "type": "VEC2"
    },
    {
      "bufferView": 0,
      "byteOffset": 143616,
      "componentType": 5125,
      "count": 11520,
      "type": "SCALAR"
    },
    {
      "bufferView": 2,
      "byteOffset": 240912,
      "componentType": 5126,
      "count": 90,
      "max": [
        4.282660007476807,
        0.5028166770935059,
        0.5
      ],
      "min": [
        -4.282359600067139,
        -4.911034107208252,
        -0.49999991059303284
      ],
      "type": "VEC3"
    },
    {
      "bufferView": 2,
      "byteOffset": 241992,
      "componentType": 5126,
      "count": 90,
      "max": [
        0.9999938011169434,
        0.7776260375976563,
        0.7763832807540894
      ],
      "min": [
        -0.9999957084655762,
        -0.775513768196106,
        -0.7763832807540894
      ],
      "type": "VEC3"
    },
    {
      "bufferView": 1,
      "byteOffset": 109296,
      "componentType": 5126,
      "count": 90,
      "max": [
        0.3562984764575958,
        0.5061861872673035
      ],
      "min": [
        0.16880565881729126,
        0.13120049238204956
      ],
      "type": "VEC2"
    },
    {
      "bufferView": 0,
      "byteOffset": 189696,
      "componentType": 5125,
      "count": 240,
      "type": "SCALAR"
    },
    {
      "bufferView": 2,
      "byteOffset": 243072,
      "componentType": 5126,
      "count": 90,
      "max": [
        4.282660007476807,
        0.5028166770935059,
        0.5
      ],
      "min": [
        -4.282359600067139,
        -4.911034107208252,
        -0.49999991059303284
      ],
      "type": "VEC3"
    },
    {
      "bufferView": 2,
      "byteOffset": 244152,
      "componentType": 5126,
      "count": 90,
      "max": [
        0.6317967176437378,
        0.7776260375976563,
        0.7763832807540894
      ],
      "min": [
        -0.6313309669494629,
        -0.775513768196106,
        -0.7763832807540894
      ],
      "type": "VEC3"
    },
    {
      "bufferView": 1,
      "byteOffset": 110016,
      "componentType": 5126,
      "count": 90,
      "max": [
        0.9930180311203003,
        0.9999999403953552
      ],
      "min": [
        0.6355804204940796,
        1.1718073622546399e-08
      ],
      "type": "VEC2"
    },
    {
      "bufferView": 0,
      "byteOffset": 190656,
      "componentType": 5125,
      "count": 240,
      "type": "SCALAR"
    },
    {
      "bufferView": 2,
      "byteOffset": 245232,
      "componentType": 5126,
      "count": 315,
      "max": [
        1.1499755382537842,
        1.4329270124435425,
        0.6066201329231262
      ],
      "min": [
        -1.2958770990371704,
        -1.1137208938598633,
        -0.7660871744155884
      ],
      "type": "VEC3"
    },
    {
      "bufferView": 2,
      "byteOffset": 249012,
      "componentType": 5126,
      "count": 315,
      "max": [
        0.9571864008903503,
        0.9495745301246643,
        0.9993820190429688
      ],
      "min": [
        -0.9967780709266663,
        -0.9991902709007263,
        -1.0
      ],
      "type": "VEC3"
    },
    {
      "bufferView": 1,
      "byteOffset": 110736,
      "componentType": 5126,
      "count": 315,
      "max": [
        0.7573445439338684,
        0.9549209475517273
      ],
      "min": [
        2.552102973396586e-09,
        -7.0302617061202e-09
      ],
      "type": "VEC2"
    },
    {
      "bufferView": 1,
      "byteOffset": 113256,
      "componentType": 5126,
      "count": 315,
      "max": [
        0.7573445439338684,
        0.9549209475517273
      ],
      "min": [
        2.552102973396586e-09,
        -7.0302617061202e-09
      ],
      "type": "VEC2"
    },
    {
      "bufferView": 0,
      "byteOffset": 191616,
      "componentType": 5125,
      "count": 1248,
      "type": "SCALAR"
    },
    {
      "bufferView": 2,
      "byteOffset": 252792,
      "componentType": 5126,
      "count": 321,
      "max": [
        1.5156140327453613,
        1.2471859455108643,
        0.6822645664215088
      ],
      "min": [
        -0.9077432751655579,
        -0.8813521862030029,
        -0.7704393863677979
      ],
      "type": "VEC3"
    },
    {
      "bufferView": 2,
      "byteOffset": 256644,
      "componentType": 5126,
      "count": 321,
      "max": [
        0.9666045308113098,
        0.941774845123291,
        0.9943773746490479
      ],
      "min": [
        -0.9998477101325989,
        -0.9935475587844849,
        -1.0
      ],
      "type": "VEC3"
    },
    {
      "bufferView": 1,
      "byteOffset": 115776,
      "componentType": 5126,
      "count": 321,
      "max": [
        0.8243376016616821,
        0.9612800478935242
      ],
      "min": [
        -1.4231257949859355e-08,
        -5.165543548457663e-09
      ],
      "type": "VEC2"
    },
    {
      "bufferView": 1,
      "byteOffset": 118344,
      "componentType": 5126,
      "count": 321,
      "max": [
        0.8243376016616821,
        0.9612800478935242
      ],
      "min": [
        -1.4231257949859355e-08,
        -5.165543548457663e-09
      ],
      "type": "VEC2"
    },
    {
      "bufferView": 0,
      "byteOffset": 196608,
      "componentType": 5125,
      "count": 1248,
      "type": "SCALAR"
    },
    {
      "bufferView": 2,
      "byteOffset": 260496,
      "componentType": 5126,
      "count": 315,
      "max": [
        1.210148811340332,
        1.022871971130371,
        0.7710638046264648
      ],
      "min": [
        -0.9314451217651367,
        -1.4435062408447266,
        -0.7699165344238281
      ],
      "type": "VEC3"
    },
    {
      "bufferView": 2,
      "byteOffset": 264276,
      "componentType": 5126,
      "count": 315,
      "max": [
        0.9926669001579285,
        0.9965862035751343,
        0.9972354769706726
      ],
      "min": [
        -0.9670954346656799,
        -0.9936510920524597,
        -1.0
      ],
      "type": "VEC3"
    },
    {
      "bufferView": 1,
      "byteOffset": 120912,
      "componentType": 5126,
      "count": 315,
      "max": [
        0.8939990401268005,
        0.9571202993392944
      ],
      "min": [
        -2.0701473868456333e-09,
        0.20940057933330536
      ],
      "type": "VEC2"
    },
    {
      "bufferView": 1,
      "byteOffset": 123432,
      "componentType": 5126,
      "count": 315,
      "max": [
        0.8939990401268005,
        0.9571202993392944
      ],
      "min": [
        -2.0701473868456333e-09,
        0.20940057933330536
      ],
      "type": "VEC2"
    },
    {
      "bufferView": 0,
      "byteOffset": 201600,
      "componentType": 5125,
      "count": 1248,
      "type": "SCALAR"
    },
    {
      "bufferView": 2,
      "byteOffset": 268056,
      "componentType": 5126,
      "count": 277,
      "max": [
        0.9454531669616699,
        0.9414701461791992,
        0.6737691164016724
      ],
      "min": [
        -1.148427963256836,
        -1.2467222213745117,
        -0.7702860832214355
      ],
      "type": "VEC3"
    },
    {
      "bufferView": 2,
      "byteOffset": 271380,
      "componentType": 5126,
      "count": 277,
      "max": [
        0.9939393997192383,
        0.9631298184394836,
        0.9969461560249329
      ],
      "min": [
        -0.9840049743652344,
        -0.9751867055892944,
        -0.9999998807907104
      ],
      "type": "VEC3"
    },
    {
      "bufferView": 1,
      "byteOffset": 125952,
      "componentType": 5126,
      "count": 277,
      "max": [
        1.0000001192092896,
        0.911498486995697
      ],
      "min": [
        0.20027823746204376,
        0.24752645194530487
      ],
      "type": "VEC2"
    },
    {
      "bufferView": 1,
      "byteOffset": 128168,
      "componentType": 5126,
      "count": 277,
      "max": [
        1.0000001192092896,
        0.911498486995697
      ],
      "min": [
        0.20027823746204376,
        0.24752645194530487
      ],
      "type": "VEC2"
    },
    {
      "bufferView": 0,
      "byteOffset": 206592,
      "componentType": 5125,
      "count": 1248,
      "type": "SCALAR"
    },
    {
      "bufferView": 2,
      "byteOffset": 274704,
      "componentType": 5126,
      "count": 275,
      "max": [
        1.1877210140228271,
        0.9606819152832031,
        0.6542855501174927
      ],
      "min": [
        -0.8837186098098755,
        -0.9026575088500977,
        -0.7693266272544861
      ],
      "type": "VEC3"
    },
    {
      "bufferView": 2,
      "byteOffset": 278004,
      "componentType": 5126,
      "count": 275,
      "max": [
        0.9715506434440613,
        0.9994878768920898,
        0.9989686608314514
      ],
      "min": [
        -0.9816128611564636,
        -0.9866001009941101,
        -0.9999993443489075
      ],
      "type": "VEC3"
    },
    {
      "bufferView": 1,
      "byteOffset": 130384,
      "componentType": 5126,
      "count": 275,
      "max": [
        0.926331639289856,
        0.9438785314559937
      ],
      "min": [
        0.057750850915908813,
        3.290887340412496e-09
      ],
      "type": "VEC2"
    },
    {
      "bufferView": 1,
      "byteOffset": 132584,
      "componentType": 5126,
      "count": 275,
      "max": [
        0.926331639289856,
        0.9438785314559937
      ],
      "min": [
        0.057750850915908813,
        3.290887340412496e-09
      ],
      "type": "VEC2"
    },
    {
      "bufferView": 0,
      "byteOffset": 211584,
      "componentType": 5125,
      "count": 1248,
      "type": "SCALAR"
    },
    {
      "bufferView": 2,
      "byteOffset": 281304,
      "componentType": 5126,
      "count": 321,
      "max": [
        1.00796377658844,
        1.4648704528808594,
        0.6822645664215088
      ],
      "min": [
        -1.1842219829559326,
        -0.9355125427246094,
        -0.7704393863677979
      ],
      "type": "VEC3"
    },
    {
      "bufferView": 2,
      "byteOffset": 285156,
      "componentType": 5126,
      "count": 321,
      "max": [
        0.993190586566925,
        0.960298478603363,
        0.9943772554397583
      ],
      "min": [
        -0.9799124598503113,
        -0.9977008700370789,
        -1.0
      ],
      "type": "VEC3"
    },
    {
      "bufferView": 1,
      "byteOffset": 134784,
      "componentType": 5126,
      "count": 321,
      "max": [
        0.8619793057441711,
        0.9579241275787354
      ],
      "min": [
        9.523610344785993e-09,
        1.3870626958123466e-07
      ],
      "type": "VEC2"
    },
    {
      "bufferView": 1,
      "byteOffset": 137352,
      "componentType": 5126,
      "count": 321,
      "max": [
        0.8619793057441711,
        0.9579241275787354
      ],
      "min": [
        9.523610344785993e-09,
        1.3870626958123466e-07
      ],
      "type": "VEC2"
    },
    {
      "bufferView": 0,
      "byteOffset": 216576,
      "componentType": 5125,
      "count": 1248,
      "type": "SCALAR"
    },
    {
      "bufferView": 2,
      "byteOffset": 289008,
      "componentType": 5126,
      "count": 4352,
      "max": [
        0.72500079870224,
        3.001429796218872,
        0.19588716328144073
      ],
      "min": [
        -20.80381965637207,
        -22.914409637451172,
        -0.688661515712738
      ],
      "type": "VEC3"
    },
    {
      "bufferView": 2,
      "byteOffset": 341232,
      "componentType": 5126,
      "count": 4352,
      "max": [
        0.9986934065818787,
        0.9978847503662109,
        0.9985707402229309
      ],
      "min": [
        -0.9934908747673035,
        -0.9990758299827576,
        -0.998908519744873
      ],
      "type": "VEC3"
    },
    {
      "bufferView": 1,
      "byteOffset": 139920,
      "componentType": 5126,
      "count": 4352,
      "max": [
        0.8790746331214905,
        0.8916181921958923
      ],
      "min": [
        0.1823347955942154,
        0.12438095360994339
      ],
      "type": "VEC2"
    },
    {
      "bufferView": 1,
      "byteOffset": 174736,
      "componentType": 5126,
      "count": 4352,
      "max": [
        0.8790746331214905,
        0.8916181921958923
      ],
      "min": [
        0.1823347955942154,
        0.12438095360994339
      ],
      "type": "VEC2"
    },
    {
      "bufferView": 0,
      "byteOffset": 221568,
      "componentType": 5125,
      "count": 6528,
      "type": "SCALAR"
    },
    {
      "bufferView": 2,
      "byteOffset": 393456,
      "componentType": 5126,
      "count": 288,
      "max": [
        6.546937942504883,
        4.662134170532227,
        0.39533066749572754
      ],
      "min": [
        -4.482583522796631,
        -6.295712471008301,
        -0.7900648713111877
      ],
      "type": "VEC3"
    },
    {
      "bufferView": 2,
      "byteOffset": 396912,
      "componentType": 5126,
      "count": 288,
      "max": [
        0.7124022841453552,
        0.6527127623558044,
        0.9948952198028564
      ],
      "min": [
        -0.20634622871875763,
        -0.7052772641181946,
        0.6985912322998047
      ],
      "type": "VEC3"
    },
    {
      "bufferView": 1,
      "byteOffset": 209552,
      "componentType": 5126,
      "count": 288,
      "max": [
        0.6308627128601074,
        1.0064483880996704
      ],
      "min": [
        0.3719119429588318,
        0.4939950704574585
      ],
      "type": "VEC2"
    },
    {
      "bufferView": 1,
      "byteOffset": 211856,
      "componentType": 5126,
      "count": 288,
      "max": [
        0.6308627128601074,
        1.0064483880996704
      ],
      "min": [
        0.3719119429588318,
        0.4939950704574585
      ],
      "type": "VEC2"
    },
    {
      "bufferView": 1,
      "byteOffset": 214160,
      "componentType": 5126,
      "count": 288,
      "max": [
        0.6308627128601074,
        1.0064483880996704
      ],
      "min": [
        0.3719119429588318,
        0.4939950704574585
      ],
      "type": "VEC2"
    },
    {
      "bufferView": 0,
      "byteOffset": 247680,
      "componentType": 5125,
      "count": 432,
      "type": "SCALAR"
    },
    {
      "bufferView": 2,
      "byteOffset": 400368,
      "componentType": 5126,
      "count": 104,
      "max": [
        0.5999994277954102,
        0.6000000238418579,
        0.6000001430511475
      ],
      "min": [
        -4.65734338760376,
        -2.1697592735290527,
        -1.329636573791504
      ],
      "type": "VEC3"
    },
    {
      "bufferView": 2,
      "byteOffset": 401616,
      "componentType": 5126,
      "count": 104,
      "max": [
        1.0,
        1.0,
        1.0
      ],
      "min": [
        -1.0,
        -1.0,
        -1.0
      ],
      "type": "VEC3"
    },
    {
      "bufferView": 1,
      "byteOffset": 216464,
      "componentType": 5126,
      "count": 104,
      "max": [
        0.9999999403953552,
        0.6666666865348816
      ],
      "min": [
        -9.998896821628023e-09,
        9.872757722462211e-09
      ],
      "type": "VEC2"
    },
    {
      "bufferView": 0,
      "byteOffset": 249408,
      "componentType": 5125,
      "count": 156,
      "type": "SCALAR"
    }
  ],
  "asset": {
    "extras": {
      "author": "Fragalax (https://sketchfab.com/Fragalax)",
      "license": "CC-BY-4.0 (http://creativecommons.org/licenses/by/4.0/)",
      "source": "https://sketchfab.com/3d-models/island-e7bccefed5a14279804c8c563964f7f2",
      "title": "Island"
    },
    "generator": "Sketchfab-16.7.0",
    "version": "2.0"
  },
  "bufferViews": [
    {
      "buffer": 0,
      "byteLength": 250032,
      "name": "floatBufferViews",
      "target": 34963
    },
    {
      "buffer": 0,
      "byteLength": 217296,
      "byteOffset": 250032,
      "byteStride": 8,
      "name": "floatBufferViews",
      "target": 34962
    },
    {
      "buffer": 0,
      "byteLength": 402864,
      "byteOffset": 467328,
      "byteStride": 12,
      "name": "floatBufferViews",
      "target": 34962
    }
  ],
  "buffers": [
    {
      "byteLength": 870192,
      "uri": "scene.bin"
    }
  ],
  "images": [
    {
      "uri": "textures/Chest_baseColor.png"
    },
    {
      "uri": "textures/Sabbia_baseColor.png"
    },
    {
      "uri": "textures/Ocean_baseColor.png"
    },
    {
      "uri": "textures/PalmTree_baseColor.png"
    },
    {
      "uri": "textures/Palma_baseColor.png"
    },
    {
      "uri": "textures/Rock_baseColor.png"
    },
    {
      "uri": "textures/Conchiglia_baseColor.png"
    },
    {
      "uri": "textures/Leaf2_baseColor.png"
    }
  ],
  "materials": [
    {
      "doubleSided": true,
      "name": "Chest",
      "pbrMetallicRoughness": {
        "baseColorTexture": {
          "index": 0
        },
        "metallicFactor": 0.0,
        "roughnessFactor": 0.8211145618000169
      }
    },
    {
      "doubleSided": true,
      "name": "Sabbia",
      "pbrMetallicRoughness": {
        "baseColorTexture": {
          "index": 1
        },
        "metallicFactor": 0.0,
        "roughnessFactor": 0.8211145618000169
      }
    },
    {
      "doubleSided": true,
      "name": "Ocean",
      "pbrMetallicRoughness": {
        "baseColorTexture": {
          "index": 2
        },
        "metallicFactor": 0.0,
        "roughnessFactor": 0.8211145618000169
      }
    },
    {
      "doubleSided": true,
      "name": "PalmTree",
      "pbrMetallicRoughness": {
        "baseColorTexture": {
          "index": 3
        },
        "metallicFactor": 0.0,
        "roughnessFactor": 0.8211145618000169
      }
    },
    {
      "alphaCutoff": 0.23009593934000558,
      "alphaMode": "MASK",
      "doubleSided": true,
      "name": "Palma",
      "pbrMetallicRoughness": {
        "baseColorTexture": {
          "index": 4
        },
        "metallicFactor": 0.0,
        "roughnessFactor": 0.8211145618000169
      }
    },
    {
      "doubleSided": true,
      "name": "material_0",
      "pbrMetallicRoughness": {
        "baseColorFactor": [
          0.8,
          0.8,
          0.8,
          1.0
        ],
        "metallicFactor": 0.0,
        "roughnessFactor": 0.8211145618000169
      }
    },
    {
      "doubleSided": true,
      "name": "Rock",
      "pbrMetallicRoughness": {
        "baseColorTexture": {
          "index": 5
        },
        "metallicFactor": 0.0,
        "roughnessFactor": 0.8211145618000169
      }
    },
    {
      "doubleSided": true,
      "name": "Conchiglia",
      "pbrMetallicRoughness": {
        "baseColorTexture": {
          "index": 6
        },
        "metallicFactor": 0.0,
        "roughnessFactor": 0.8211145618000169
      }
    },
    {
      "doubleSided": true,
      "name": "Leaf2",
      "pbrMetallicRoughness": {
        "baseColorTexture": {
          "index": 7
        },
        "metallicFactor": 0.0,
        "roughnessFactor": 0.8211145618000169
      }
    }
  ],
  "meshes": [
    {
      "name": "Cassa_Chest_0",
      "primitives": [
        {
          "attributes": {
            "NORMAL": 1,
            "POSITION": 0,
            "TEXCOORD_0": 2
          },
          "indices": 3,
          "material": 0,
          "mode": 4
        }
      ]
    },
    {
      "name": "Atollo_Sabbia_0",
      "primitives": [
        {
          "attributes": {
            "NORMAL": 5,
            "POSITION": 4,
            "TEXCOORD_0": 6,
            "TEXCOORD_1": 7
          },
          "indices": 8,
          "material": 1,
          "mode": 4
        }
      ]
    },
    {
      "name": "Isola_Ocean_0",
      "primitives": [
        {
          "attributes": {
            "NORMAL": 10,
            "POSITION": 9,
            "TEXCOORD_0": 11
          },
          "indices": 12,
          "material": 2,
          "mode": 4
        }
      ]
    },
    {
      "name": "ModuloPalma.001_PalmTree_0",
      "primitives": [
        {
          "attributes": {
            "NORMAL": 14,
            "POSITION": 13,
            "TEXCOORD_0": 15
          },
          "indices": 16,
          "material": 3,
          "mode": 4
        }
      ]
    },
    {
      "name": "Foglia1.002_Palma_0",
      "primitives": [
        {
          "attributes": {
            "NORMAL": 18,
            "POSITION": 17,
            "TEXCOORD_0": 19
          },
          "indices": 20,
          "material": 4,
          "mode": 4
        }
      ]
    },
    {
      "name": "Foglia2.001_Palma_0",
      "primitives": [
        {
          "attributes": {
            "NORMAL": 22,
            "POSITION": 21,
            "TEXCOORD_0": 23
          },
          "indices": 24,
          "material": 4,
          "mode": 4
        }
      ]
    },
    {
      "name": "Foglia3.001_Palma_0",
      "primitives": [
        {
          "attributes": {
            "NORMAL": 26,
            "POSITION": 25,
            "TEXCOORD_0": 27
          },
          "indices": 28,
          "material": 4,
          "mode": 4
        }
      ]
    },
    {
      "name": "Foglia4.001_Palma_0",
      "primitives": [
        {
          "attributes": {
            "NORMAL": 30,
            "POSITION": 29,
            "TEXCOORD_0": 31
          },
          "indices": 32,
          "material": 4,
          "mode": 4
        }
      ]
    },
    {
      "name": "Foglia5.001_Palma_0",
      "primitives": [
        {
          "attributes": {
            "NORMAL": 34,
            "POSITION": 33,
            "TEXCOORD_0": 35
          },
          "indices": 36,
          "material": 4,
          "mode": 4
        }
      ]
    },
    {
      "name": "Foglia1.003_Palma_0",
      "primitives": [
        {
          "attributes": {
            "NORMAL": 38,
            "POSITION": 37,
            "TEXCOORD_0": 39
          },
          "indices": 40,
          "material": 4,
          "mode": 4
        }
      ]
    },
    {
      "name": "ModuloPalma.002_PalmTree_0",
      "primitives": [
        {
          "attributes": {
            "NORMAL": 42,
            "POSITION": 41,
            "TEXCOORD_0": 43
          },
          "indices": 44,
          "material": 3,
          "mode": 4
        }
      ]
    },
    {
      "name": "Foglia1_Palma_0",
      "primitives": [
        {
          "attributes": {
            "NORMAL": 46,
            "POSITION": 45,
            "TEXCOORD_0": 47
          },
          "indices": 48,
          "material": 4,
          "mode": 4
        }
      ]
    },
    {
      "name": "Foglia2_Palma_0",
      "primitives": [
        {
          "attributes": {
            "NORMAL": 50,
            "POSITION": 49,
            "TEXCOORD_0": 51
          },
          "indices": 52,
          "material": 4,
          "mode": 4
        }
      ]
    },
    {
      "name": "Foglia3_Palma_0",
      "primitives": [
        {
          "attributes": {
            "NORMAL": 54,
            "POSITION": 53,
            "TEXCOORD_0": 55
          },
          "indices": 56,
          "material": 4,
          "mode": 4
        }
      ]
    },
    {
      "name": "Foglia4_Palma_0",
      "primitives": [
        {
          "attributes": {
            "NORMAL": 58,
            "POSITION": 57,
            "TEXCOORD_0": 59
          },
          "indices": 60,
          "material": 4,
          "mode": 4
        }
      ]
    },
    {
      "name": "Foglia5_Palma_0",
      "primitives": [
        {
          "attributes": {
            "NORMAL": 62,
            "POSITION": 61,
            "TEXCOORD_0": 63
          },
          "indices": 64,
          "material": 4,
          "mode": 4
        }
      ]
    },
    {
      "name": "Foglia1.001_Palma_0",
      "primitives": [
        {
          "attributes": {
            "NORMAL": 66,
            "POSITION": 65,
            "TEXCOORD_0": 67
          },
          "indices": 68,
          "material": 4,
          "mode": 4
        }
      ]
    },
    {
      "name": "ModuloPalma.003_PalmTree_0",
      "primitives": [
        {
          "attributes": {
            "NORMAL": 70,
            "POSITION": 69,
            "TEXCOORD_0": 71
          },
          "indices": 72,
          "material": 3,
          "mode": 4
        }
      ]
    },
    {
      "name": "Foglia1.004_Palma_0",
      "primitives": [
        {
          "attributes": {
            "NORMAL": 74,
            "POSITION": 73,
            "TEXCOORD_0": 75
          },
          "indices": 76,
          "material": 4,
          "mode": 4
        }
      ]
    },
    {
      "name": "Foglia2.002_Palma_0",
      "primitives": [
        {
          "attributes": {
            "NORMAL": 78,
            "POSITION": 77,
            "TEXCOORD_0": 79
          },
          "indices": 80,
          "material": 4,
          "mode": 4
        }
      ]
    },
    {
      "name": "Foglia3.002_Palma_0",
      "primitives": [
        {
          "attributes": {
            "NORMAL": 82,
            "POSITION": 81,
            "TEXCOORD_0": 83
          },
          "indices": 84,
          "material": 4,
          "mode": 4
        }
      ]
    },
    {
      "name": "Foglia4.002_Palma_0",
      "primitives": [
        {
          "attributes": {
            "NORMAL": 86,
            "POSITION": 85,
            "TEXCOORD_0": 87
          },
          "indices": 88,
          "material": 4,
          "mode": 4
        }
      ]
    },
    {
      "name": "Foglia5.002_Palma_0",
      "primitives": [
        {
          "attributes": {
            "NORMAL": 90,
            "POSITION": 89,
            "TEXCOORD_0": 91
          },
          "indices": 92,
          "material": 4,
          "mode": 4
        }
      ]
    },
    {
      "name": "Foglia1.005_Palma_0",
      "primitives": [
        {
          "attributes": {
            "NORMAL": 94,
            "POSITION": 93,
            "TEXCOORD_0": 95
          },
          "indices": 96,
          "material": 4,
          "mode": 4
        }
      ]
    },
    {
      "name": "Corda_Rope_0",
      "primitives": [
        {
          "attributes": {
            "NORMAL": 98,
            "POSITION": 97,
            "TEXCOORD_0": 99,
            "TEXCOORD_1": 100
          },
          "indices": 101,
          "material": 5,
          "mode": 4
        }
      ]
    },
    {
      "name": "Tronchi_Palma_0",
      "primitives": [
        {
          "attributes": {
            "NORMAL": 103,
            "POSITION": 102,
            "TEXCOORD_0": 104
          },
          "indices": 105,
          "material": 4,
          "mode": 4
        }
      ]
    },
    {
      "name": "Tronchi_PalmTree_0",
      "primitives": [
        {
          "attributes": {
            "NORMAL": 107,
            "POSITION": 106,
            "TEXCOORD_0": 108
          },
          "indices": 109,
          "material": 3,
          "mode": 4
        }
      ]
    },
    {
      "name": "Sasso1_Rock_0",
      "primitives": [
        {
          "attributes": {
            "NORMAL": 111,
            "POSITION": 110,
            "TEXCOORD_0": 112,
            "TEXCOORD_1": 113
          },
          "indices": 114,
          "material": 6,
          "mode": 4
        }
      ]
    },
    {
      "name": "Sasso2_Rock_0",
      "primitives": [
        {
          "attributes": {
            "NORMAL": 116,
            "POSITION": 115,
            "TEXCOORD_0": 117,
            "TEXCOORD_1": 118
          },
          "indices": 119,
          "material": 6,
          "mode": 4
        }
      ]
    },
    {
      "name": "Sasso3_Rock_0",
      "primitives": [
        {
          "attributes": {
            "NORMAL": 121,
            "POSITION": 120,
            "TEXCOORD_0": 122,
            "TEXCOORD_1": 123
          },
          "indices": 124,
          "material": 6,
          "mode": 4
        }
      ]
    },
    {
      "name": "Sasso4_Rock_0",
      "primitives": [
        {
          "attributes": {
            "NORMAL": 126,
            "POSITION": 125,
            "TEXCOORD_0": 127,
            "TEXCOORD_1": 128
          },
          "indices": 129,
          "material": 6,
          "mode": 4
        }
      ]
    },
    {
      "name": "Sasso5_Rock_0",
      "primitives": [
        {
          "attributes": {
            "NORMAL": 131,
            "POSITION": 130,
            "TEXCOORD_0": 132,
            "TEXCOORD_1": 133
          },
          "indices": 134,
          "material": 6,
          "mode": 4
        }
      ]
    },
    {
      "name": "Sasso6_Rock_0",
      "primitives": [
        {
          "attributes": {
            "NORMAL": 136,
            "POSITION": 135,
            "TEXCOORD_0": 137,
            "TEXCOORD_1": 138
          },
          "indices": 139,
          "material": 6,
          "mode": 4
        }
      ]
    },
    {
      "name": "Conchiglie_Conchiglia_0",
      "primitives": [
        {
          "attributes": {
            "NORMAL": 141,
            "POSITION": 140,
            "TEXCOORD_0": 142,
            "TEXCOORD_1": 143
          },
          "indices": 144,
          "material": 7,
          "mode": 4
        }
      ]
    },
    {
      "name": "Foglie_Leaf2_0",
      "primitives": [
        {
          "attributes": {
            "NORMAL": 146,
            "POSITION": 145,
            "TEXCOORD_0": 147,
            "TEXCOORD_1": 148,
            "TEXCOORD_2": 149
          },
          "indices": 150,
          "material": 8,
          "mode": 4
        }
      ]
    },
    {
      "name": "RefUman/Chest_Chest_0",
      "primitives": [
        {
          "attributes": {
            "NORMAL": 152,
            "POSITION": 151,
            "TEXCOORD_0": 153
          },
          "indices": 154,
          "material": 0,
          "mode": 4
        }
      ]
    }
  ],
  "nodes": [
    {
      "children": [
        1
      ],
      "matrix": [
        1.0,
        0.0,
        0.0,
        0.0,
        0.0,
        2.220446049250313e-16,
        -1.0,
        0.0,
        0.0,
        1.0,
        2.220446049250313e-16,
        0.0,
        0.0,
        0.0,
        0.0,
        1.0
      ],
      "name": "Sketchfab_model"
    },
    {
      "children": [
        2
      ],
      "matrix": [
        0.009999999776482582,
        0.0,
        0.0,
        0.0,
        0.0,
        0.0,
        0.009999999776482582,
        0.0,
        0.0,
        -0.009999999776482582,
        0.0,
        0.0,
        0.0,
        0.0,
        0.0,
        1.0
      ],
      "name": "cd64eeed0c6f45389c778d6541dbac82.fbx"
    },
    {
      "children": [
        3,
        6,
        8,
        10,
        12,
        14,
        29,
        44,
        59,
        65,
        67,
        69,
        71,
        73,
        75,
        77,
        79,
        81
      ],
      "name": "RootNode"
    },
    {
      "children": [
        4
      ],
      "matrix": [
        90.6307691767724,
        -42.26182855187115,
        -9.66405193191395e-07,
        0.0,
        38.302228628492,
        82.13938014258221,
        42.2618209721623,
        0.0,
        -17.860618891011804,
        -38.30221670756316,
        90.63078112935418,
        0.0,
        -150.488525390625,
        1250.67333984375,
        -100.54539489746094,
        1.0
      ],
      "name": "Light"
    },
    {
      "children": [
        5
      ],
      "matrix": [
        1.0,
        0.0,
        0.0,
        0.0,
        0.0,
        2.220446049250313e-16,
        1.0,
        0.0,
        0.0,
        -1.0,
        2.220446049250313e-16,
        0.0,
        0.0,
        0.0,
        0.0,
        1.0
      ],
      "name": "Object_4"
    },
    {
      "name": "Object_5"
    },
    {
      "children": [
        7
      ],
      "matrix": [
        100.0,
        0.0,
        0.0,
        0.0,
        0.0,
        -1.629206793918314e-05,
        -99.99999999999868,
        0.0,
        0.0,
        99.99999999999868,
        -1.629206793918314e-05,
        0.0,
        46.78412628173828,
        -9.578129720466677e-07,
        -21.912208557128906,
        1.0
      ],
      "name": "Cassa"
    },
    {
      "mesh": 0,
      "name": "Cassa_Chest_0"
    },
    {
      "children": [
        9
      ],
      "matrix": [
        -64.2795603828022,
        -45.358653684170186,
        -61.73111575982732,
        0.0,
        -32.7153734254938,
        89.12121702499422,
        -31.418330505224603,
        0.0,
        69.26645866009035,
        3.121771757763625e-07,
        -72.12598494779809,
        0.0,
        561.0542602539063,
        347.7327575683594,
        474.4161682128906,
        1.0
      ],
      "name": "Camera"
    },
    {
      "name": "Object_9"
    },
    {
      "children": [
        11
      ],
      "matrix": [
        129.6678009033203,
        0.0,
        0.0,
        0.0,
        0.0,
        -2.1125566218413676e-05,
        -129.6678009033186,
        0.0,
        0.0,
        129.6678009033186,
        -2.1125566218413676e-05,
        0.0,
        0.0,
        -45.01007843017578,
        0.0,
        1.0
      ],
      "name": "Atollo"
    },
    {
      "mesh": 1,
      "name": "Atollo_Sabbia_0"
    },
    {
      "children": [
        13
      ],
      "matrix": [
        129.6678009033203,
        0.0,
        0.0,
        0.0,
        0.0,
        -2.1125566218413676e-05,
        -129.6678009033186,
        0.0,
        0.0,
        129.6678009033186,
        -2.1125566218413676e-05,
        0.0,
        0.0,
        -45.01007843017578,
        0.0,
        1.0
      ],
      "name": "Isola"
    },
    {
      "mesh": 2,
      "name": "Isola_Ocean_0"
    },
    {
      "children": [
        15,
        17,
        19,
        21,
        23,
        25,
        27
      ],
      "matrix": [
        100.0,
        0.0,
        0.0,
        0.0,
        -0.0,
        -1.629206793918314e-05,
        -99.99999999999868,
        0.0,
        0.0,
        99.99999999999868,
        -1.629206793918314e-05,
        0.0,
        -627.8851318359375,
        109.41700744628906,
        -373.12237548828125,
        1.0
      ],
      "name": "Palma.001"
    },
    {
      "children": [
        16
      ],
      "matrix": [
        1.0,
        0.0,
        0.0,
        0.0,
        0.0,
        1.0,
        -2.646977960169688e-23,
        0.0,
        0.0,
        2.646977960169688e-23,
        1.0,
        0.0,
        0.0,
        -4.440892098500626e-16,
        -0.2672741413116455,
        1.0
      ],
      "name": "ModuloPalma.001"
    },
    {
      "mesh": 3,
      "name": "ModuloPalma.001_PalmTree_0"
    },
    {
      "children": [
        18
      ],
      "matrix": [
        -0.2958788054897531,
        2.175128237372525,
        0.4278266948541843,
        0.0,
        -1.839423380560699,
        -6.305710997325508e-08,
        -1.2721185050372272,
        0.0,
        -1.2372312656309465,
        -0.5201730539526034,
        1.7889781030237268,
        0.0,
        -0.8861851692199707,
        -0.8224637508392334,
        6.010546684265137,
        1.0
      ],
      "name": "Foglia1.002"
    },
    {
      "mesh": 4,
      "name": "Foglia1.002_Palma_0"
    },
    {
      "children": [
        20
      ],
      "matrix": [
        1.6579638868488993,
        0.6721515284303813,
        1.3420621707345755,
        0.0,
        -0.849810516078922,
        2.0686701105233167,
        0.013781306201829643,
        0.0,
        -1.2372310972593794,
        -0.5201730543302747,
        1.7889779213020693,
        0.0,
        -0.8861851692199707,
        -0.8224687576293945,
        6.010546684265137,
        1.0
      ],
      "name": "Foglia2.001"
    },
    {
      "mesh": 5,
      "name": "Foglia2.001_Palma_0"
    },
    {
      "children": [
        22
      ],
      "matrix": [
        1.3205565479083394,
        -1.7597158833981206,
        0.40161326033385575,
        0.0,
        1.3142115301880994,
        1.2785080649780336,
        1.2806357714393213,
        0.0,
        -1.237231286009318,
        -0.5201729855401034,
        1.7889778107671521,
        0.0,
        -0.8861851692199707,
        -0.8224687576293945,
        6.010546684265137,
        1.0
      ],
      "name": "Foglia3.001"
    },
    {
      "mesh": 6,
      "name": "Foglia3.001_Palma_0"
    },
    {
      "children": [
        24
      ],
      "matrix": [
        -0.8418147605786712,
        -1.759715753375003,
        -1.093851531780674,
        0.0,
        1.6620375993743886,
        -1.2785083106224016,
        0.7776955158148192,
        0.0,
        -1.23723147572348,
        -0.5201728216434465,
        1.7889777272190401,
        0.0,
        -0.8861851692199707,
        -0.8224687576293945,
        6.010546684265137,
        1.0
      ],
      "name": "Foglia4.001"
    },
    {
      "mesh": 7,
      "name": "Foglia4.001_Palma_0"
    },
    {
      "children": [
        26
      ],
      "matrix": [
        -1.8408267715370685,
        0.672153295516795,
        -1.077650503795099,
        0.0,
        -0.28701698571595724,
        -2.0686695820721828,
        -0.7999945461884936,
        0.0,
        -1.2372314191549942,
        -0.5201729651339485,
        1.7889777246189182,
        0.0,
        -0.8861851692199707,
        -0.8224687576293945,
        6.010547161102295,
        1.0
      ],
      "name": "Foglia5.001"
    },
    {
      "mesh": 8,
      "name": "Foglia5.001_Palma_0"
    },
    {
      "children": [
        28
      ],
      "matrix": [
        -0.2958788054897531,
        2.175128237372525,
        0.4278266948541843,
        0.0,
        -1.839423380560699,
        -6.305710997325508e-08,
        -1.2721185050372272,
        0.0,
        -1.2372312656309465,
        -0.5201730539526034,
        1.7889781030237268,
        0.0,
        -0.8861851692199707,
        -0.8224637508392334,
        6.010546684265137,
        1.0
      ],
      "name": "Foglia1.003"
    },
    {
      "mesh": 9,
      "name": "Foglia1.003_Palma_0"
    },
    {
      "children": [
        30,
        32,
        34,
        36,
        38,
        40,
        42
      ],
      "matrix": [
        100.0,
        0.0,
        0.0,
        0.0,
        -0.0,
        -1.629206793918314e-05,
        -99.99999999999868,
        0.0,
        0.0,
        99.99999999999868,
        -1.629206793918314e-05,
        0.0,
        -533.3480224609375,
        118.52191925048828,
        -362.2322692871094,
        1.0
      ],
      "name": "Palma.002"
    },
    {
      "children": [
        31
      ],
      "matrix": [
        1.0,
        0.0,
        0.0,
        0.0,
        0.0,
        1.0,
        -2.646977960169688e-23,
        0.0,
        0.0,
        2.646977960169688e-23,
        1.0,
        0.0,
        0.0,
        0.0,
        -0.2672741413116455,
        1.0
      ],
      "name": "ModuloPalma.002"
    },
    {
      "mesh": 10,
      "name": "ModuloPalma.002_PalmTree_0"
    },
    {
      "children": [
        33
      ],
      "matrix": [
        0.48219319120452336,
        2.1751283125157213,
        0.19511367925319095,
        0.0,
        -0.8388828200708526,
        -2.3320389353233023e-07,
        2.073171357606849,
        0.0,
        2.0163153079708,
        -0.5201726288312922,
        0.8158766732860947,
        0.0,
        1.4780278205871582,
        -0.7135624885559082,
        4.602763652801514,
        1.0
      ],
      "name": "Foglia1"
    },
    {
      "mesh": 11,
      "name": "Foglia1_Palma_0"
    },
    {
      "children": [
        35
      ],
      "matrix": [
        0.9468308611092194,
        0.6721516192920727,
        -1.9114095109414482,
        0.0,
        0.19936434590261123,
        2.0686700930086173,
        0.8262092759622385,
        0.0,
        2.016315447515963,
        -0.5201730065755853,
        0.8158767411330129,
        0.0,
        1.4780278205871582,
        -0.7135674953460693,
        4.602763652801514,
        1.0
      ],
      "name": "Foglia2"
    },
    {
      "mesh": 12,
      "name": "Foglia2_Palma_0"
    },
    {
      "children": [
        37
      ],
      "matrix": [
        0.1029801549365542,
        -1.759715846819085,
        -1.3764294473478258,
        0.0,
        0.9620967486135413,
        1.278508132775722,
        -1.5625458707240558,
        0.0,
        2.0163151699490425,
        -0.5201728871950847,
        0.8158768496626915,
        0.0,
        1.4780278205871582,
        -0.7135674953460693,
        4.602763652801514,
        1.0
      ],
      "name": "Foglia3"
    },
    {
      "mesh": 13,
      "name": "Foglia3_Palma_0"
    },
    {
      "children": [
        39
      ],
      "matrix": [
        -0.8831856973375908,
        -1.7597158134330335,
        1.0607290310702542,
        0.0,
        0.39524451366279006,
        -1.278508221506677,
        -1.7919155391207777,
        0.0,
        2.016315351283372,
        -0.5201728375038053,
        0.8158770867510994,
        0.0,
        1.4780278205871582,
        -0.7135674953460693,
        4.602763652801514,
        1.0
      ],
      "name": "Foglia4"
    },
    {
      "mesh": 14,
      "name": "Foglia4_Palma_0"
    },
    {
      "children": [
        41
      ],
      "matrix": [
        -0.6488189145174483,
        0.6721523920388386,
        2.0319963193501045,
        0.0,
        -0.7178229561113698,
        -2.0686698034857907,
        0.45508165381291604,
        0.0,
        2.0163152573053624,
        -0.5201732520454045,
        0.8158770547069738,
        0.0,
        1.4780278205871582,
        -0.7135674953460693,
        4.602763652801514,
        1.0
      ],
      "name": "Foglia5"
    },
    {
      "mesh": 15,
      "name": "Foglia5_Palma_0"
    },
    {
      "children": [
        43
      ],
      "matrix": [
        0.48219319120452336,
        2.1751283125157213,
        0.19511367925319095,
        0.0,
        -0.8388828200708526,
        -2.3320389353233023e-07,
        2.073171357606849,
        0.0,
        2.0163153079708,
        -0.5201726288312922,
        0.8158766732860947,
        0.0,
        1.4780278205871582,
        -0.7135624885559082,
        4.602763652801514,
        1.0
      ],
      "name": "Foglia1.001"
    },
    {
      "mesh": 16,
      "name": "Foglia1.001_Palma_0"
    },
    {
      "children": [
        45,
        47,
        49,
        51,
        53,
        55,
        57
      ],
      "matrix": [
        100.0,
        0.0,
        0.0,
        0.0,
        0.0,
        -1.629206793918314e-05,
        -99.99999999999868,
        0.0,
        0.0,
        99.99999999999868,
        -1.629206793918314e-05,
        0.0,
        202.5787353515625,
        151.64947509765625,
        265.2455749511719,
        1.0
      ],
      "name": "Palma.003"
    },
    {
      "children": [
        46
      ],
      "matrix": [
        1.0,
        0.0,
        0.0,
        0.0,
        0.0,
        1.0,
        -2.646977960169688e-23,
        0.0,
        0.0,
        2.646977960169688e-23,
        1.0,
        0.0,
        0.0,
        -4.440892098500626e-16,
        -0.2672741413116455,
        1.0
      ],
      "name": "ModuloPalma.003"
    },
    {
      "mesh": 17,
      "name": "ModuloPalma.003_PalmTree_0"
    },
    {
      "children": [
        48
      ],
      "matrix": [
        0.3675567245190002,
        2.186068854255834,
        -0.29625633511649246,
        0.0,
        -2.0821467704871344,
        0.4430085158471933,
        0.6856902204494908,
        0.0,
        0.7289236433221713,
        0.16312331753204,
        2.108037927283682,
        0.0,
        1.2317595481872559,
        -0.7197308540344238,
        4.676838397979736,
        1.0
      ],
      "name": "Foglia1.004"
    },
    {
      "mesh": 18,
      "name": "Foglia1.004_Palma_0"
    },
    {
      "children": [
        50
      ],
      "matrix": [
        2.0938205771501726,
        0.25420528855012847,
        -0.7436785995030863,
        0.0,
        -0.29385059101876343,
        2.215972544639144,
        -0.06986684031030124,
        0.0,
        0.7289238894795401,
        0.16312325719858514,
        2.1080378468353342,
        0.0,
        1.2317595481872559,
        -0.7197349071502686,
        4.6768388748168945,
        1.0
      ],
      "name": "Foglia2.002"
    },
    {
      "mesh": 19,
      "name": "Foglia2.002_Palma_0"
    },
    {
      "children": [
        52
      ],
      "matrix": [
        0.9264946466814605,
        -2.0289608781210378,
        -0.1633620386746158,
        0.0,
        1.9005372068544117,
        0.9265369556248844,
        -0.7288699877446636,
        0.0,
        0.7289234387249295,
        0.16312304439863484,
        2.1080380191653925,
        0.0,
        1.2317595481872559,
        -0.7197351455688477,
        4.676839351654053,
        1.0
      ],
      "name": "Foglia3.002"
    },
    {
      "mesh": 20,
      "name": "Foglia3.002_Palma_0"
    },
    {
      "children": [
        54
      ],
      "matrix": [
        -1.5212149320043304,
        -1.508172942068833,
        0.6427156223945444,
        0.0,
        1.4684477703983654,
        -1.643340549769094,
        -0.3805992386748694,
        0.0,
        0.7289235673453938,
        0.1631241755371428,
        2.1080378871611867,
        0.0,
        1.2317595481872559,
        -0.7197360992431641,
        4.676838397979736,
        1.0
      ],
      "name": "Foglia4.002"
    },
    {
      "mesh": 21,
      "name": "Foglia4.002_Palma_0"
    },
    {
      "children": [
        56
      ],
      "matrix": [
        -1.8666562532427375,
        1.0968624371937752,
        0.5605810288572207,
        0.0,
        -0.9929898199501139,
        -1.942175987635084,
        0.4936471557100582,
        0.0,
        0.7289234529302284,
        0.16312291397956882,
        2.1080380243454564,
        0.0,
        1.2317593097686768,
        -0.7197356224060059,
        4.6768388748168945,
        1.0
      ],
      "name": "Foglia5.002"
    },
    {
      "mesh": 22,
      "name": "Foglia5.002_Palma_0"
    },
    {
      "children": [
        58
      ],
      "matrix": [
        0.3675567245190002,
        2.186068854255834,
        -0.29625633511649246,
        0.0,
        -2.0821467704871344,
        0.4430085158471933,
        0.6856902204494908,
        0.0,
        0.7289236433221713,
        0.16312331753204,
        2.108037927283682,
        0.0,
        1.2317595481872559,
        -0.7197308540344238,
        4.676838397979736,
        1.0
      ],
      "name": "Foglia1.005"
    },
    {
      "mesh": 23,
      "name": "Foglia1.005_Palma_0"
    },
    {
      "children": [
        60,
        62
      ],
      "matrix": [
        100.0,
        0.0,
        0.0,
        0.0,
        0.0,
        -1.629206793918314e-05,
        -99.99999999999868,
        0.0,
        0.0,
        99.99999999999868,
        -1.629206793918314e-05,
        0.0,
        0.0,
        0.0,
        1342.42431640625,
        1.0
      ],
      "name": "Zattera"
    },
    {
      "children": [
        61
      ],
      "matrix": [
        1.0,
        0.0,
        0.0,
        0.0,
        0.0,
        1.0,
        -2.646977960169688e-23,
        0.0,
        0.0,
        2.646977960169688e-23,
        1.0,
        0.0,
        0.0,
        2.256378173828125,
        0.0,
        1.0
      ],
      "name": "Corda"
    },
    {
      "mesh": 24,
      "name": "Corda_Rope_0"
    },
    {
      "children": [
        63,
        64
      ],
      "matrix": [
        1.0,
        0.0,
        0.0,
        0.0,
        0.0,
        1.0,
        -2.646977960169688e-23,
        0.0,
        0.0,
        2.646977960169688e-23,
        1.0,
        0.0,
        0.0,
        2.256378173828125,
        0.0,
        1.0
      ],
      "name": "Tronchi"
    },
    {
      "mesh": 25,
      "name": "Tronchi_Palma_0"
    },
    {
      "mesh": 26,
      "name": "Tronchi_PalmTree_0"
    },
    {
      "children": [
        66
      ],
      "matrix": [
        100.0,
        0.0,
        0.0,
        0.0,
        0.0,
        -1.629206793918314e-05,
        -99.99999999999868,
        0.0,
        0.0,
        99.99999999999868,
        -1.629206793918314e-05,
        0.0,
        402.2015686035156,
        187.39991760253906,
        337.16412353515625,
        1.0
      ],
      "name": "Sasso1"
    },
    {
      "mesh": 27,
      "name": "Sasso1_Rock_0"
    },
    {
      "children": [
        68
      ],
      "matrix": [
        100.0,
        0.0,
        0.0,
        0.0,
        0.0,
        -1.629206793918314e-05,
        -99.99999999999868,
        0.0,
        0.0,
        99.99999999999868,
        -1.629206793918314e-05,
        0.0,
        419.69818115234375,
        167.625244140625,
        73.82307434082031,
        1.0
      ],
      "name": "Sasso2"
    },
    {
      "mesh": 28,
      "name": "Sasso2_Rock_0"
    },
    {
      "children": [
        70
      ],
      "matrix": [
        100.0,
        0.0,
        0.0,
        0.0,
        0.0,
        -1.629206793918314e-05,
        -99.99999999999868,
        0.0,
        0.0,
        99.99999999999868,
        -1.629206793918314e-05,
        0.0,
        830.7152099609375,
        56.522762298583984,
        -746.9747314453125,
        1.0
      ],
      "name": "Sasso3"
    },
    {
      "mesh": 29,
      "name": "Sasso3_Rock_0"
    },
    {
      "children": [
        72
      ],
      "matrix": [
        100.0,
        0.0,
        0.0,
        0.0,
        0.0,
        -1.629206793918314e-05,
        -99.99999999999868,
        0.0,
        0.0,
        99.99999999999868,
        -1.629206793918314e-05,
        0.0,
        942.9441528320313,
        65.71856689453125,
        -1004.452880859375,
        1.0
      ],
      "name": "Sasso4"
    },
    {
      "mesh": 30,
      "name": "Sasso4_Rock_0"
    },
    {
      "children": [
        74
      ],
      "matrix": [
        100.0,
        0.0,
        0.0,
        0.0,
        0.0,
        -1.629206793918314e-05,
        -99.99999999999868,
        0.0,
        0.0,
        99.99999999999868,
        -1.629206793918314e-05,
        0.0,
        639.2610473632813,
        66.87313079833984,
        -1339.5462646484375,
        1.0
      ],
      "name": "Sasso5"
    },
    {
      "mesh": 31,
      "name": "Sasso5_Rock_0"
    },
    {
      "children": [
        76
      ],
      "matrix": [
        100.0,
        0.0,
        0.0,
        0.0,
        0.0,
        -1.629206793918314e-05,
        -99.99999999999868,
        0.0,
        0.0,
        99.99999999999868,
        -1.629206793918314e-05,
        0.0,
        380.248291015625,
        82.67446899414063,
        -1292.152099609375,
        1.0
      ],
      "name": "Sasso6"
    },
    {
      "mesh": 32,
      "name": "Sasso6_Rock_0"
    },
    {
      "children": [
        78
      ],
      "matrix": [
        100.0,
        0.0,
        0.0,
        0.0,
        0.0,
        -1.629206793918314e-05,
        -99.99999999999868,
        0.0,
        0.0,
        99.99999999999868,
        -1.629206793918314e-05,
        0.0,
        863.9617919921875,
        48.79297637939453,
        -1127.08984375,
        1.0
      ],
      "name": "Conchiglie"
    },
    {
      "mesh": 33,
      "name": "Conchiglie_Conchiglia_0"
    },
    {
      "children": [
        80
      ],
      "matrix": [
        100.0,
        0.0,
        0.0,
        0.0,
        -0.0,
        -1.629206793918314e-05,
        -99.99999999999868,
        0.0,
        0.0,
        99.99999999999868,
        -1.629206793918314e-05,
        0.0,
        -409.2933044433594,
        173.231201171875,
        -179.3206024169922,
        1.0
      ],
      "name": "Foglie"
    },
    {
      "mesh": 34,
      "name": "Foglie_Leaf2_0"
    },
    {
      "children": [
        82
      ],
      "matrix": [
        100.0,
        0.0,
        0.0,
        0.0,
        -0.0,
        -1.629206793918314e-05,
        -99.99999999999868,
        0.0,
        0.0,
        99.99999999999868,
        -1.629206793918314e-05,
        0.0,
        -296.06036376953125,
        177.97401428222656,
        -60.04066467285156,
        1.0
      ],
      "name": "RefUman/Chest"
    },
    {
      "mesh": 35,
      "name": "RefUman/Chest_Chest_0"
    }
  ],
  "samplers": [
    {
      "magFilter": 9729,
      "minFilter": 9987,
      "wrapS": 10497,
      "wrapT": 10497
    }
  ],
  "scene": 0,
  "scenes": [
    {
      "name": "Sketchfab_Scene",
      "nodes": [
        0
      ]
    }
  ],
  "textures": [
    {
      "sampler": 0,
      "source": 0
    },
    {
      "sampler": 0,
      "source": 1
    },
    {
      "sampler": 0,
      "source": 2
    },
    {
      "sampler": 0,
      "source": 3
    },
    {
      "sampler": 0,
      "source": 4
    },
    {
      "sampler": 0,
      "source": 5
    },
    {
      "sampler": 0,
      "source": 6
    },
    {
      "sampler": 0,
      "source": 7
    }
  ]
}
